<?xml version="1.0" encoding="UTF-8" standalone="no"?>
<!-- Created with Inkscape (http://www.inkscape.org/) -->

<svg
   xmlns:dc="http://purl.org/dc/elements/1.1/"
   xmlns:cc="http://creativecommons.org/ns#"
   xmlns:rdf="http://www.w3.org/1999/02/22-rdf-syntax-ns#"
   xmlns:svg="http://www.w3.org/2000/svg"
   xmlns="http://www.w3.org/2000/svg"
   xmlns:sodipodi="http://sodipodi.sourceforge.net/DTD/sodipodi-0.dtd"
   xmlns:inkscape="http://www.inkscape.org/namespaces/inkscape"
   width="199.15274mm"
   height="129.44928mm"
   viewBox="0 0 705.65932 458.67855"
   id="svg2"
   version="1.1"
   inkscape:version="0.91 r13725"
   sodipodi:docname="booth-babes-bubbles.svg"
   inkscape:export-filename="/home/arthursucks/Code/comic-source/02-booth-babes/booth-babes-bubbles.png"
   inkscape:export-xdpi="318.85074"
   inkscape:export-ydpi="318.85074">
  <defs
     id="defs4" />
  <sodipodi:namedview
     id="base"
     pagecolor="#ffffff"
     bordercolor="#666666"
     borderopacity="1.0"
     inkscape:pageopacity="0.0"
     inkscape:pageshadow="2"
     inkscape:zoom="1.41"
     inkscape:cx="341.41669"
     inkscape:cy="217.56303"
     inkscape:document-units="px"
     inkscape:current-layer="layer1"
     showgrid="false"
     fit-margin-top="0"
     fit-margin-left="0"
     fit-margin-right="0"
     fit-margin-bottom="0"
     borderlayer="true"
     showguides="false"
     inkscape:window-width="1920"
     inkscape:window-height="960"
     inkscape:window-x="0"
     inkscape:window-y="27"
     inkscape:window-maximized="1" />
  <metadata
     id="metadata7">
    <rdf:RDF>
      <cc:Work
         rdf:about="">
        <dc:format>image/svg+xml</dc:format>
        <dc:type
           rdf:resource="http://purl.org/dc/dcmitype/StillImage" />
        <dc:title></dc:title>
      </cc:Work>
    </rdf:RDF>
  </metadata>
  <g
     inkscape:label="Layer 1"
     inkscape:groupmode="layer"
     id="layer1"
     transform="translate(-31.785767,-36.737232)">
    <path
       style="fill:#ffffff;fill-opacity:1;stroke:#000000;stroke-width:2;stroke-miterlimit:4;stroke-dasharray:none;stroke-opacity:1"
       d="m 295.78894,125.19255 c -8.19036,-0.10473 -13.75815,4.07449 -13.75815,4.07449 0,0 17.93699,-4.33567 22.48473,3.85466 1.2052,2.17054 2.01302,4.02803 2.55975,5.59849 -12.2596,0.99967 -22.01486,2.85026 -24.47781,5.47178 -7.53899,8.02435 -8.85464,55.5327 0,63.13891 8.85463,7.60622 82.80158,7.60622 90.77911,0 7.97754,-7.60621 7.53898,-54.27829 0,-63.13891 -4.54358,-5.34011 -33.83591,-7.15397 -58.05345,-5.99903 -1.67046,-3.45813 -4.18005,-7.77001 -7.01683,-9.40656 -4.52999,-2.61337 -8.79447,-3.54623 -12.51735,-3.59383 z"
       id="rect3434"
       inkscape:connector-curvature="0" />
    <text
       xml:space="preserve"
       style="font-style:normal;font-weight:normal;font-size:40px;line-height:125%;font-family:sans-serif;text-align:center;letter-spacing:0px;word-spacing:0px;text-anchor:middle;fill:#000000;fill-opacity:1;stroke:none;stroke-width:1px;stroke-linecap:butt;stroke-linejoin:miter;stroke-opacity:1"
       x="327.55145"
       y="159.54005"
       id="text3347"
       sodipodi:linespacing="125%"><tspan
         sodipodi:role="line"
         id="tspan3349"
         x="327.55145"
         y="159.54005"
         style="font-style:normal;font-variant:normal;font-weight:500;font-stretch:normal;font-size:11.25px;font-family:OpenComicFont;-inkscape-font-specification:'OpenComicFont Medium';text-align:center;text-anchor:middle">Yo, I have bad</tspan><tspan
         sodipodi:role="line"
         x="327.55145"
         y="175.16505"
         style="font-style:normal;font-variant:normal;font-weight:500;font-stretch:normal;font-size:11.25px;font-family:OpenComicFont;-inkscape-font-specification:'OpenComicFont Medium';text-align:center;text-anchor:middle"
         id="tspan3353">news about</tspan><tspan
         sodipodi:role="line"
         x="327.55145"
         y="190.79005"
         style="font-style:normal;font-variant:normal;font-weight:500;font-stretch:normal;font-size:11.25px;font-family:OpenComicFont;-inkscape-font-specification:'OpenComicFont Medium';text-align:center;text-anchor:middle"
         id="tspan3351">our convention</tspan><tspan
         sodipodi:role="line"
         x="327.55145"
         y="206.41505"
         style="font-style:normal;font-variant:normal;font-weight:500;font-stretch:normal;font-size:11.25px;font-family:OpenComicFont;-inkscape-font-specification:'OpenComicFont Medium';text-align:center;text-anchor:middle"
         id="tspan3355">trip next week.</tspan></text>
    <path
       style="fill:#ffffff;fill-opacity:1;stroke:#000000;stroke-width:2;stroke-miterlimit:4;stroke-dasharray:none;stroke-opacity:1"
       d="M 230.3457 187.51172 C 212.07785 187.58086 194.11963 188.63245 192.7832 190.45898 C 191.79583 191.80844 190.96345 193.68273 190.33008 195.81641 L 154.55273 197.04883 L 189.10742 202.92578 C 188.77423 208.36636 189.76696 213.9153 192.7832 216.85352 C 198.52375 222.44556 264.02703 221.36087 269.76758 216.85352 C 275.50812 212.34618 275.82809 195.40717 269.76758 190.45898 C 267.1917 188.35588 248.61356 187.44258 230.3457 187.51172 z "
       transform="translate(31.785767,36.737232)"
       id="rect4236" />
    <text
       sodipodi:linespacing="125%"
       id="text3357"
       y="245.40302"
       x="263.4068"
       style="font-style:normal;font-weight:normal;font-size:40px;line-height:125%;font-family:sans-serif;text-align:center;letter-spacing:0px;word-spacing:0px;text-anchor:middle;fill:#000000;fill-opacity:1;stroke:none;stroke-width:1px;stroke-linecap:butt;stroke-linejoin:miter;stroke-opacity:1"
       xml:space="preserve"><tspan
         id="tspan3365"
         style="font-style:normal;font-variant:normal;font-weight:500;font-stretch:normal;font-size:11.25px;font-family:OpenComicFont;-inkscape-font-specification:'OpenComicFont Medium';text-align:center;text-anchor:middle"
         y="245.40302"
         x="263.4068"
         sodipodi:role="line">What's that?</tspan></text>
    <path
       style="fill:#ffffff;fill-opacity:1;stroke:#000000;stroke-width:2;stroke-miterlimit:4;stroke-dasharray:none;stroke-opacity:1"
       d="M 512.07422 53.425781 C 494.09452 53.521469 477.69527 54.724615 474.80664 57.519531 C 468.20406 63.907913 470.56022 88.400686 474.80664 93.503906 C 476.1727 95.14559 485.54503 96.118613 497.70117 96.566406 C 497.73221 99.545709 498.55605 103.70588 502.31836 106.68359 C 508.81271 111.82358 518.55273 113.0625 518.55273 113.0625 C 504.7943 106.01163 503.26449 103.92782 504.08789 96.755859 C 529.22333 97.27993 561.66472 95.884877 563.91211 93.503906 C 567.51596 89.685856 569.22952 61.980157 563.91211 57.519531 C 560.92107 55.010429 535.19097 53.302754 512.07422 53.425781 z "
       transform="translate(31.785767,36.737232)"
       id="rect4238" />
    <text
       xml:space="preserve"
       style="font-style:normal;font-weight:normal;font-size:40px;line-height:125%;font-family:sans-serif;text-align:center;letter-spacing:0px;word-spacing:0px;text-anchor:middle;fill:#000000;fill-opacity:1;stroke:none;stroke-width:1px;stroke-linecap:butt;stroke-linejoin:miter;stroke-opacity:1"
       x="551.30029"
       y="109.03242"
       id="text3376"
       sodipodi:linespacing="125%"><tspan
         sodipodi:role="line"
         x="551.30029"
         y="109.03242"
         style="font-style:normal;font-variant:normal;font-weight:500;font-stretch:normal;font-size:11.25px;font-family:OpenComicFont;-inkscape-font-specification:'OpenComicFont Medium';text-align:center;text-anchor:middle"
         id="tspan3378">Jerry is coming</tspan><tspan
         sodipodi:role="line"
         x="551.30029"
         y="124.65742"
         style="font-style:normal;font-variant:normal;font-weight:500;font-stretch:normal;font-size:11.25px;font-family:OpenComicFont;-inkscape-font-specification:'OpenComicFont Medium';text-align:center;text-anchor:middle"
         id="tspan3380">with us!</tspan></text>
    <path
       style="fill:#ffffff;fill-opacity:1;stroke:#000000;stroke-width:2;stroke-miterlimit:4;stroke-dasharray:none;stroke-opacity:1"
       d="M 480.89258 188.32227 L 488.88086 201.91406 C 482.18797 202.34828 477.22863 203.00004 476.24414 203.85742 C 472.60609 207.02575 471.90153 226.75892 476.24414 230.16211 C 480.58674 233.56529 536.48599 234.26986 540.59375 230.16211 C 542.13341 228.62245 543.02972 225.05343 543.35742 221 L 576.08398 221 C 576.19011 229.45787 577.274 237.14577 579.97656 239.57227 C 586.55941 245.48265 674.26221 243.91357 678.60352 239.57227 C 682.94483 235.23096 683.84145 198.41129 678.60352 192.94922 C 673.36559 187.48714 583.64541 189.28037 579.97656 192.94922 C 578.10695 194.81883 576.44181 205.35434 576.12109 216.02148 C 569.7586 216.04947 549.48253 216.13948 543.47656 216.16211 C 543.34592 210.7893 542.3398 205.60348 540.59375 203.85742 C 538.21936 201.48304 513.13201 200.86823 494.94531 201.60156 L 480.89258 188.32227 z "
       transform="translate(31.785767,36.737232)"
       id="rect4242" />
    <text
       sodipodi:linespacing="125%"
       id="text3382"
       y="240.85733"
       x="661.40686"
       style="font-style:normal;font-weight:normal;font-size:40px;line-height:125%;font-family:sans-serif;text-align:center;letter-spacing:0px;word-spacing:0px;text-anchor:middle;fill:#000000;fill-opacity:1;stroke:none;stroke-width:1px;stroke-linecap:butt;stroke-linejoin:miter;stroke-opacity:1"
       xml:space="preserve"><tspan
         style="font-style:normal;font-variant:normal;font-weight:500;font-stretch:normal;font-size:11.25px;font-family:OpenComicFont;-inkscape-font-specification:'OpenComicFont Medium';text-align:center;text-anchor:middle"
         y="240.85733"
         x="661.40686"
         sodipodi:role="line"
         id="tspan3390">Jerry always</tspan><tspan
         style="font-style:normal;font-variant:normal;font-weight:500;font-stretch:normal;font-size:11.25px;font-family:OpenComicFont;-inkscape-font-specification:'OpenComicFont Medium';text-align:center;text-anchor:middle"
         y="254.91982"
         x="661.40686"
         sodipodi:role="line"
         id="tspan3432">says something</tspan><tspan
         style="font-style:normal;font-variant:normal;font-weight:500;font-stretch:normal;font-size:11.25px;font-family:OpenComicFont;-inkscape-font-specification:'OpenComicFont Medium';text-align:center;text-anchor:middle"
         y="268.9823"
         x="661.40686"
         sodipodi:role="line"
         id="tspan3392">stupid or sexist.</tspan></text>
    <text
       xml:space="preserve"
       style="font-style:normal;font-weight:normal;font-size:40px;line-height:125%;font-family:sans-serif;text-align:center;letter-spacing:0px;word-spacing:0px;text-anchor:middle;fill:#000000;fill-opacity:1;stroke:none;stroke-width:1px;stroke-linecap:butt;stroke-linejoin:miter;stroke-opacity:1"
       x="540.18866"
       y="257.52484"
       id="text3400"
       sodipodi:linespacing="125%"><tspan
         id="tspan3404"
         sodipodi:role="line"
         x="540.18866"
         y="257.52484"
         style="font-style:normal;font-variant:normal;font-weight:500;font-stretch:normal;font-size:11.25px;font-family:OpenComicFont;-inkscape-font-specification:'OpenComicFont Medium';text-align:center;text-anchor:middle">Ah crap!</tspan></text>
    <path
       style="fill:#ffffff;fill-opacity:1;stroke:#000000;stroke-width:2;stroke-miterlimit:4;stroke-dasharray:none;stroke-opacity:1"
       d="M 183.32227 251.37891 C 123.09311 251.35531 62.98297 252.41649 60.300781 254.63281 C 54.936403 259.06543 53.981828 279.65072 60.300781 284.46094 C 63.714818 287.05982 133.03093 288.62563 197.37305 288.5625 C 202.04171 294.84987 215.71484 312.07227 215.71484 312.07227 L 204.35352 288.5625 C 256.40586 288.41365 303.43855 287.16013 307.06055 284.46094 C 315.28867 278.32915 313.3795 258.87663 307.06055 254.63281 C 303.90107 252.51089 243.55142 251.40251 183.32227 251.37891 z "
       transform="translate(31.785767,36.737232)"
       id="rect4244" />
    <text
       xml:space="preserve"
       style="font-style:normal;font-weight:normal;font-size:40px;line-height:125%;font-family:sans-serif;text-align:center;letter-spacing:0px;word-spacing:0px;text-anchor:middle;fill:#000000;fill-opacity:1;stroke:none;stroke-width:1px;stroke-linecap:butt;stroke-linejoin:miter;stroke-opacity:1"
       x="215.67709"
       y="303.23422"
       id="text3408"
       sodipodi:linespacing="125%"><tspan
         sodipodi:role="line"
         x="215.67709"
         y="303.23422"
         style="font-style:normal;font-variant:normal;font-weight:500;font-stretch:normal;font-size:11.25px;font-family:OpenComicFont;-inkscape-font-specification:'OpenComicFont Medium';text-align:center;text-anchor:middle"
         id="tspan3410">Yo! What's up ladies? You girls all ready</tspan><tspan
         sodipodi:role="line"
         x="215.67709"
         y="317.29672"
         style="font-style:normal;font-variant:normal;font-weight:500;font-stretch:normal;font-size:11.25px;font-family:OpenComicFont;-inkscape-font-specification:'OpenComicFont Medium';text-align:center;text-anchor:middle"
         id="tspan3412">to get booth babed up for next week?</tspan></text>
    <path
       style="fill:#ffffff;fill-opacity:1;stroke:#000000;stroke-width:2;stroke-miterlimit:4;stroke-dasharray:none;stroke-opacity:1"
       d="M 523.2168 254.38867 C 459.32907 254.36666 395.56778 255.35656 392.72266 257.42383 C 387.03243 261.55834 386.01987 280.75938 392.72266 285.24609 C 396.26475 287.61709 466.68298 289.06443 533.63086 289.07227 C 537.13773 295.92451 545.72852 309.43164 545.72852 309.43164 L 539.97461 289.07227 C 597.34393 288.99931 650.50099 287.84744 654.4707 285.24609 C 663.19863 279.52669 661.17349 261.38223 654.4707 257.42383 C 651.11931 255.44461 587.10452 254.41068 523.2168 254.38867 z "
       transform="translate(31.785767,36.737232)"
       id="path4273" />
    <text
       xml:space="preserve"
       style="font-style:normal;font-weight:normal;font-size:40px;line-height:125%;font-family:sans-serif;text-align:center;letter-spacing:0px;word-spacing:0px;text-anchor:middle;fill:#000000;fill-opacity:1;stroke:none;stroke-width:1px;stroke-linecap:butt;stroke-linejoin:miter;stroke-opacity:1"
       x="556.85608"
       y="304.49695"
       id="text3414"
       sodipodi:linespacing="125%"><tspan
         sodipodi:role="line"
         x="556.85608"
         y="304.49695"
         style="font-style:normal;font-variant:normal;font-weight:500;font-stretch:normal;font-size:11.25px;font-family:OpenComicFont;-inkscape-font-specification:'OpenComicFont Medium';text-align:center;text-anchor:middle"
         id="tspan3418">I only act this way because I have trouble</tspan><tspan
         sodipodi:role="line"
         x="556.85608"
         y="318.55945"
         style="font-style:normal;font-variant:normal;font-weight:500;font-stretch:normal;font-size:11.25px;font-family:OpenComicFont;-inkscape-font-specification:'OpenComicFont Medium';text-align:center;text-anchor:middle"
         id="tspan3420">relating to women in a professional setting.</tspan></text>
    <path
       style="fill:#ffffff;fill-opacity:1;stroke:#000000;stroke-width:2;stroke-miterlimit:4;stroke-dasharray:none;stroke-opacity:1"
       d="M 482.91406 398.87891 L 483.61523 399.33984 C 483.32696 399.11442 483.08361 398.94673 482.91406 398.87891 z M 483.61523 399.33984 C 486.61899 401.68864 495.38051 411.74929 499.5957 416.6582 A 49.246231 15.075377 0 0 0 478.39258 429.03125 A 49.246231 15.075377 0 0 0 527.63867 444.10547 A 49.246231 15.075377 0 0 0 576.88477 429.03125 A 49.246231 15.075377 0 0 0 527.63867 413.95508 A 49.246231 15.075377 0 0 0 507.86914 415.24219 L 483.61523 399.33984 z "
       transform="translate(31.785767,36.737232)"
       id="path4279" />
    <text
       xml:space="preserve"
       style="font-style:normal;font-weight:normal;font-size:40px;line-height:125%;font-family:sans-serif;text-align:center;letter-spacing:0px;word-spacing:0px;text-anchor:middle;fill:#000000;fill-opacity:1;stroke:none;stroke-width:1px;stroke-linecap:butt;stroke-linejoin:miter;stroke-opacity:1"
       x="560.89673"
       y="469.15182"
       id="text3428"
       sodipodi:linespacing="125%"><tspan
         sodipodi:role="line"
         x="560.89673"
         y="469.15182"
         style="font-style:normal;font-variant:normal;font-weight:500;font-stretch:normal;font-size:11.25px;font-family:OpenComicFont;-inkscape-font-specification:'OpenComicFont Medium';text-align:center;text-anchor:middle"
         id="tspan3430">Damn it, Jerry.</tspan></text>
  </g>
</svg>
