<?xml version="1.0" encoding="UTF-8" standalone="no"?>
<!-- Created with Inkscape (http://www.inkscape.org/) -->

<svg
   xmlns:dc="http://purl.org/dc/elements/1.1/"
   xmlns:cc="http://creativecommons.org/ns#"
   xmlns:rdf="http://www.w3.org/1999/02/22-rdf-syntax-ns#"
   xmlns:svg="http://www.w3.org/2000/svg"
   xmlns="http://www.w3.org/2000/svg"
   xmlns:sodipodi="http://sodipodi.sourceforge.net/DTD/sodipodi-0.dtd"
   xmlns:inkscape="http://www.inkscape.org/namespaces/inkscape"
   width="6in"
   height="6in"
   viewBox="0 0 540.00001 540.00001"
   id="svg2"
   version="1.1"
   inkscape:version="0.91 r13725"
   sodipodi:docname="14-plus.svg">
  <defs
     id="defs4" />
  <sodipodi:namedview
     id="base"
     pagecolor="#ffffff"
     bordercolor="#666666"
     borderopacity="1.0"
     inkscape:pageopacity="0.0"
     inkscape:pageshadow="2"
     inkscape:zoom="1.4"
     inkscape:cx="249.29185"
     inkscape:cy="319.22293"
     inkscape:document-units="px"
     inkscape:current-layer="layer1"
     showgrid="false"
     units="in"
     borderlayer="true"
     inkscape:window-width="1920"
     inkscape:window-height="983"
     inkscape:window-x="0"
     inkscape:window-y="21"
     inkscape:window-maximized="1" />
  <metadata
     id="metadata7">
    <rdf:RDF>
      <cc:Work
         rdf:about="">
        <dc:format>image/svg+xml</dc:format>
        <dc:type
           rdf:resource="http://purl.org/dc/dcmitype/StillImage" />
        <dc:title></dc:title>
      </cc:Work>
    </rdf:RDF>
  </metadata>
  <g
     inkscape:label="Layer 1"
     inkscape:groupmode="layer"
     id="layer1"
     transform="translate(0,-512.36215)">
    <circle
       style="fill:#0080ff;fill-opacity:1;stroke:none;stroke-width:4.03923655;stroke-miterlimit:4;stroke-dasharray:none;stroke-opacity:1"
       id="path4136"
       cx="270"
       cy="782.36212"
       r="256.73038" />
    <g
       style="font-style:normal;font-weight:normal;font-size:180px;line-height:125%;font-family:sans-serif;letter-spacing:0px;word-spacing:0px;fill:#ffffff;fill-opacity:1;stroke:none;stroke-width:1px;stroke-linecap:butt;stroke-linejoin:miter;stroke-opacity:1"
       id="text4174">
      <path
         d="m 76.636719,731.48712 q 14.25,-5.5 27.750001,-14 13.5,-8.75 24.75,-21.75 l 16.5,0 0,173.25 -23.25,0 0,-141 q -3,2.75 -7.5,5.75 -4.25,3 -9.5,5.75 -5,2.75 -10.750001,5.25 -5.5,2.5 -10.75,4.25 l -7.25,-17.5 z"
         style="font-style:normal;font-variant:normal;font-weight:normal;font-stretch:normal;font-size:250px;font-family:Ubuntu;-inkscape-font-specification:Ubuntu"
         id="path4179" />
      <path
         d="m 204.5,808.98712 q 4.75,-11 13,-25.5 8.25,-14.75 18.5,-30.25 10.5,-15.5 22.25,-30.5 12,-15 24,-27 l 22.25,0 0,110 20.5,0 0,19 -20.5,0 0,44.25 -22.5,0 0,-44.25 -77.5,0 0,-15.75 z m 77.5,-85.75 q -7.5,8 -15.25,18 -7.5,9.75 -14.75,20.5 -7.25,10.75 -13.75,22 -6.25,11.25 -11.25,22 l 55,0 0,-82.5 z"
         style="font-style:normal;font-variant:normal;font-weight:normal;font-stretch:normal;font-size:250px;font-family:Ubuntu;-inkscape-font-specification:Ubuntu"
         id="path4181" />
      <path
         d="m 348.86328,784.23712 47.25,0 0,-51.5 20,0 0,51.5 47.25,0 0,19.75 -47.25,0 0,51.75 -20,0 0,-51.75 -47.25,0 0,-19.75 z"
         style="font-style:normal;font-variant:normal;font-weight:normal;font-stretch:normal;font-size:250px;font-family:Ubuntu;-inkscape-font-specification:Ubuntu"
         id="path4183" />
    </g>
  </g>
</svg>
