<?xml version="1.0" encoding="UTF-8" standalone="no"?>
<!-- Created with Inkscape (http://www.inkscape.org/) -->

<svg
   xmlns:dc="http://purl.org/dc/elements/1.1/"
   xmlns:cc="http://creativecommons.org/ns#"
   xmlns:rdf="http://www.w3.org/1999/02/22-rdf-syntax-ns#"
   xmlns:svg="http://www.w3.org/2000/svg"
   xmlns="http://www.w3.org/2000/svg"
   xmlns:sodipodi="http://sodipodi.sourceforge.net/DTD/sodipodi-0.dtd"
   xmlns:inkscape="http://www.inkscape.org/namespaces/inkscape"
   width="6in"
   height="6in"
   viewBox="0 0 540.00001 540.00001"
   id="svg2"
   version="1.1"
   inkscape:version="0.91 r13725"
   sodipodi:docname="all-ages.svg">
  <defs
     id="defs4" />
  <sodipodi:namedview
     id="base"
     pagecolor="#ffffff"
     bordercolor="#666666"
     borderopacity="1.0"
     inkscape:pageopacity="0.0"
     inkscape:pageshadow="2"
     inkscape:zoom="1.4"
     inkscape:cx="249.29185"
     inkscape:cy="319.22293"
     inkscape:document-units="px"
     inkscape:current-layer="layer1"
     showgrid="false"
     units="in"
     borderlayer="true"
     inkscape:window-width="1920"
     inkscape:window-height="983"
     inkscape:window-x="0"
     inkscape:window-y="21"
     inkscape:window-maximized="1" />
  <metadata
     id="metadata7">
    <rdf:RDF>
      <cc:Work
         rdf:about="">
        <dc:format>image/svg+xml</dc:format>
        <dc:type
           rdf:resource="http://purl.org/dc/dcmitype/StillImage" />
        <dc:title></dc:title>
      </cc:Work>
    </rdf:RDF>
  </metadata>
  <g
     inkscape:label="Layer 1"
     inkscape:groupmode="layer"
     id="layer1"
     transform="translate(0,-512.36215)">
    <circle
       style="fill:#008000;fill-opacity:1;stroke:none;stroke-width:4.03923655;stroke-miterlimit:4;stroke-dasharray:none;stroke-opacity:1"
       id="path4136"
       cx="270"
       cy="782.36212"
       r="256.73038" />
    <g
       style="font-style:normal;font-variant:normal;font-weight:normal;font-stretch:normal;font-size:250px;line-height:125%;font-family:Ubuntu;-inkscape-font-specification:Ubuntu;letter-spacing:0px;word-spacing:0px;fill:#ffffff;fill-opacity:1;stroke:none;stroke-width:1px;stroke-linecap:butt;stroke-linejoin:miter;stroke-opacity:1"
       id="text4204">
      <path
         d="m 195.66992,868.98712 q -4.25,-11.25 -8,-22 -3.75,-11 -7.75,-22.25 l -78.5,0 -15.749998,44.25 -25.25,0 q 10,-27.5 18.75,-50.75 8.75,-23.5 17,-44.5 8.499998,-21 16.749998,-40 8.25,-19.25 17.25,-38 l 22.25,0 q 9,18.75 17.25,38 8.25,19 16.5,40 8.5,21 17.25,44.5 8.75,23.25 18.75,50.75 l -26.5,0 z m -22.75,-64.25 q -8,-21.75 -16,-42 -7.75,-20.5 -16.25,-39.25 -8.75,18.75 -16.75,39.25 -7.75,20.25 -15.5,42 l 64.5,0 z"
         style=""
         id="path4209" />
      <path
         d="m 349.69727,847.98712 0,21 -104.25,0 0,-173.25 24.25,0 0,152.25 80,0 z"
         style=""
         id="path4211" />
      <path
         d="m 479.58008,847.98712 0,21 -104.25,0 0,-173.25 24.25,0 0,152.25 80,0 z"
         style=""
         id="path4213" />
    </g>
  </g>
</svg>
